<svg width="32" height="32" viewBox="0 0 32 32" fill="none" xmlns="http://www.w3.org/2000/svg">
<path d="M29.3334 13.3333H2.66675M14.6667 18.6666H8.00008M2.66675 10.9333L2.66675 21.0666C2.66675 22.5601 2.66675 23.3068 2.9574 23.8773C3.21306 24.379 3.62101 24.787 4.12277 25.0426C4.6932 25.3333 5.43994 25.3333 6.93341 25.3333L25.0667 25.3333C26.5602 25.3333 27.307 25.3333 27.8774 25.0426C28.3792 24.787 28.7871 24.379 29.0428 23.8773C29.3334 23.3068 29.3334 22.5601 29.3334 21.0666V10.9333C29.3334 9.43982 29.3334 8.69308 29.0428 8.12265C28.7871 7.62089 28.3792 7.21294 27.8774 6.95728C27.307 6.66663 26.5602 6.66663 25.0667 6.66663L6.93342 6.66663C5.43994 6.66663 4.69321 6.66663 4.12277 6.95728C3.62101 7.21294 3.21306 7.62089 2.9574 8.12265C2.66675 8.69308 2.66675 9.43982 2.66675 10.9333Z" stroke="#0F0F0F" stroke-width="2" stroke-linecap="round" stroke-linejoin="round"/>
</svg>
