<svg width="32" height="32" viewBox="0 0 32 32" fill="none" xmlns="http://www.w3.org/2000/svg">
<path d="M18.6667 26.6666C18.6667 28.1394 17.4728 29.3333 16 29.3333C14.5272 29.3333 13.3333 28.1394 13.3333 26.6666M18.6667 26.6666C18.6667 25.1939 17.4728 24 16 24M18.6667 26.6666H28M13.3333 26.6666C13.3333 25.1939 14.5272 24 16 24M13.3333 26.6666H4M16 24V18.6666M28 6.66663C28 8.87576 22.6274 10.6666 16 10.6666C9.37258 10.6666 4 8.87576 4 6.66663M28 6.66663C28 4.45749 22.6274 2.66663 16 2.66663C9.37258 2.66663 4 4.45749 4 6.66663M28 6.66663V14.6666C28 16.88 22.6667 18.6666 16 18.6666M4 6.66663V14.6666C4 16.88 9.33333 18.6666 16 18.6666" stroke="#0F0F0F" stroke-width="2" stroke-linecap="round" stroke-linejoin="round"/>
</svg>
