<svg width="32" height="32" viewBox="0 0 32 32" fill="none" xmlns="http://www.w3.org/2000/svg">
<path d="M17.3334 9.33333L15.846 6.35856C15.418 5.5024 15.2039 5.07431 14.8846 4.76155C14.6022 4.48497 14.2618 4.27463 13.8882 4.14575C13.4656 4 12.987 4 12.0298 4H6.93341C5.43994 4 4.6932 4 4.12277 4.29065C3.62101 4.54631 3.21306 4.95426 2.9574 5.45603C2.66675 6.02646 2.66675 6.77319 2.66675 8.26667V9.33333M2.66675 9.33333H22.9334C25.1736 9.33333 26.2937 9.33333 27.1494 9.76931C27.902 10.1528 28.5139 10.7647 28.8974 11.5174C29.3334 12.373 29.3334 13.4931 29.3334 15.7333V21.6C29.3334 23.8402 29.3334 24.9603 28.8974 25.816C28.5139 26.5686 27.902 27.1805 27.1494 27.564C26.2937 28 25.1736 28 22.9334 28H9.06675C6.82654 28 5.70643 28 4.85079 27.564C4.09814 27.1805 3.48622 26.5686 3.10272 25.816C2.66675 24.9603 2.66675 23.8402 2.66675 21.6V9.33333ZM20.6667 23.3333L18.6667 21.3333M20.0001 18C20.0001 20.5773 17.9107 22.6667 15.3334 22.6667C12.7561 22.6667 10.6667 20.5773 10.6667 18C10.6667 15.4227 12.7561 13.3333 15.3334 13.3333C17.9107 13.3333 20.0001 15.4227 20.0001 18Z" stroke="#0F0F0F" stroke-width="2" stroke-linecap="round" stroke-linejoin="round"/>
</svg>
