<svg width="32" height="32" viewBox="0 0 32 32" fill="none" xmlns="http://www.w3.org/2000/svg">
<path d="M25.3334 13.3334L6.6667 13.3334M25.3334 13.3334L27.8189 17.4759C28.376 18.4043 28.6545 18.8685 28.7991 19.3682C28.9273 19.811 28.978 20.2726 28.9489 20.7327C28.9161 21.2519 28.7449 21.7654 28.4025 22.7926L28.1254 23.6239C27.6009 25.1975 27.3386 25.9844 26.8521 26.5661C26.4225 27.0798 25.8709 27.4774 25.2477 27.7225C24.542 28 23.7126 28 22.0538 28L9.94623 28C8.28747 28 7.45808 28 6.75238 27.7225C6.1292 27.4774 5.57753 27.0798 5.14795 26.5661C4.66148 25.9844 4.3992 25.1975 3.87466 23.6239L3.59755 22.7926C3.25517 21.7654 3.08398 21.2519 3.05117 20.7327C3.02211 20.2726 3.07278 19.811 3.20095 19.3682C3.3456 18.8685 3.62412 18.4043 4.18116 17.4759L6.6667 13.3334M25.3334 13.3334L25.8897 11.3861C26.1535 10.4629 26.2854 10.0013 26.1818 9.63614C26.091 9.31624 25.884 9.0418 25.6013 8.86665C25.2787 8.66671 24.7986 8.66671 23.8385 8.66671L8.16159 8.66671C7.20147 8.66671 6.72141 8.66671 6.39873 8.86665C6.11606 9.04179 5.90905 9.31624 5.81829 9.63614C5.71469 10.0013 5.84658 10.4629 6.11034 11.3861L6.6667 13.3334M16 8.66671H11.2858C10.5911 8.66671 9.92497 8.38576 9.4338 7.88566C8.94264 7.38556 8.6667 6.70728 8.6667 6.00004C8.6667 5.2928 8.94264 4.61452 9.4338 4.11442C9.92497 3.61433 10.5911 3.33337 11.2858 3.33337C14.9524 3.33337 16 8.66671 16 8.66671ZM16 8.66671H20.7143C21.4089 8.66671 22.0751 8.38576 22.5663 7.88566C23.0574 7.38556 23.3334 6.70728 23.3334 6.00004C23.3334 5.2928 23.0574 4.61452 22.5663 4.11442C22.0751 3.61433 21.4089 3.33337 20.7143 3.33337C17.0477 3.33337 16 8.66671 16 8.66671Z" stroke="#0F0F0F" stroke-width="2" stroke-linecap="round" stroke-linejoin="round"/>
</svg>
