<svg width="32" height="32" viewBox="0 0 32 32" fill="none" xmlns="http://www.w3.org/2000/svg">
<path d="M28.2667 29.3333C28.6401 29.3333 28.8268 29.3333 28.9694 29.2606C29.0948 29.1967 29.1968 29.0947 29.2608 28.9693C29.3334 28.8267 29.3334 28.64 29.3334 28.2666V14.4C29.3334 14.0266 29.3334 13.8399 29.2608 13.6973C29.1968 13.5719 29.0948 13.4699 28.9694 13.406C28.8268 13.3333 28.6401 13.3333 28.2667 13.3333L25.0667 13.3333C24.6934 13.3333 24.5067 13.3333 24.3641 13.406C24.2386 13.4699 24.1367 13.5719 24.0727 13.6973C24.0001 13.8399 24.0001 14.0266 24.0001 14.4V17.6C24.0001 17.9733 24.0001 18.16 23.9274 18.3026C23.8635 18.4281 23.7615 18.53 23.6361 18.594C23.4935 18.6666 23.3068 18.6666 22.9334 18.6666H19.7334C19.36 18.6666 19.1734 18.6666 19.0308 18.7393C18.9053 18.8032 18.8033 18.9052 18.7394 19.0306C18.6667 19.1732 18.6667 19.3599 18.6667 19.7333V22.9333C18.6667 23.3067 18.6667 23.4933 18.5941 23.636C18.5302 23.7614 18.4282 23.8634 18.3027 23.9273C18.1601 24 17.9734 24 17.6001 24H14.4001C14.0267 24 13.84 24 13.6974 24.0726C13.572 24.1365 13.47 24.2385 13.4061 24.364C13.3334 24.5066 13.3334 24.6933 13.3334 25.0666V28.2666C13.3334 28.64 13.3334 28.8267 13.4061 28.9693C13.47 29.0947 13.572 29.1967 13.6974 29.2606C13.84 29.3333 14.0267 29.3333 14.4001 29.3333L28.2667 29.3333Z" stroke="#0F0F0F" stroke-width="2" stroke-linecap="round" stroke-linejoin="round"/>
<path d="M13.3334 9.06663C13.3334 8.69326 13.3334 8.50657 13.4061 8.36397C13.47 8.23852 13.572 8.13654 13.6974 8.07262C13.84 7.99996 14.0267 7.99996 14.4001 7.99996H17.6001C17.9734 7.99996 18.1601 7.99996 18.3027 8.07262C18.4282 8.13654 18.5302 8.23852 18.5941 8.36397C18.6667 8.50657 18.6667 8.69326 18.6667 9.06663V12.2666C18.6667 12.64 18.6667 12.8267 18.5941 12.9693C18.5302 13.0947 18.4282 13.1967 18.3027 13.2606C18.1601 13.3333 17.9734 13.3333 17.6001 13.3333H14.4001C14.0267 13.3333 13.84 13.3333 13.6974 13.2606C13.572 13.1967 13.47 13.0947 13.4061 12.9693C13.3334 12.8267 13.3334 12.64 13.3334 12.2666V9.06663Z" stroke="#0F0F0F" stroke-width="2" stroke-linecap="round" stroke-linejoin="round"/>
<path d="M4.00008 17.0666C4.00008 16.6933 4.00008 16.5066 4.07274 16.364C4.13666 16.2385 4.23865 16.1365 4.36409 16.0726C4.5067 16 4.69338 16 5.06675 16H8.26675C8.64012 16 8.8268 16 8.96941 16.0726C9.09485 16.1365 9.19684 16.2385 9.26075 16.364C9.33341 16.5066 9.33341 16.6933 9.33341 17.0666V20.2666C9.33341 20.64 9.33341 20.8267 9.26075 20.9693C9.19684 21.0947 9.09485 21.1967 8.96941 21.2606C8.8268 21.3333 8.64012 21.3333 8.26675 21.3333H5.06675C4.69338 21.3333 4.5067 21.3333 4.36409 21.2606C4.23865 21.1967 4.13666 21.0947 4.07274 20.9693C4.00008 20.8267 4.00008 20.64 4.00008 20.2666V17.0666Z" stroke="#0F0F0F" stroke-width="2" stroke-linecap="round" stroke-linejoin="round"/>
<path d="M2.66675 3.73329C2.66675 3.35992 2.66675 3.17324 2.73941 3.03063C2.80333 2.90519 2.90531 2.8032 3.03075 2.73929C3.17336 2.66663 3.36005 2.66663 3.73341 2.66663H6.93341C7.30678 2.66663 7.49347 2.66663 7.63607 2.73929C7.76152 2.8032 7.8635 2.90519 7.92742 3.03063C8.00008 3.17324 8.00008 3.35992 8.00008 3.73329V6.93329C8.00008 7.30666 8.00008 7.49334 7.92742 7.63595C7.8635 7.76139 7.76152 7.86338 7.63607 7.9273C7.49347 7.99996 7.30678 7.99996 6.93341 7.99996H3.73341C3.36005 7.99996 3.17336 7.99996 3.03075 7.9273C2.90531 7.86338 2.80333 7.76139 2.73941 7.63595C2.66675 7.49334 2.66675 7.30666 2.66675 6.93329V3.73329Z" stroke="#0F0F0F" stroke-width="2" stroke-linecap="round" stroke-linejoin="round"/>
</svg>
