<svg width="32" height="32" viewBox="0 0 32 32" fill="none" xmlns="http://www.w3.org/2000/svg">
<path d="M28.2667 29.3333C28.6401 29.3333 28.8267 29.3333 28.9693 29.2607C29.0948 29.1967 29.1968 29.0948 29.2607 28.9693C29.3334 28.8267 29.3334 28.64 29.3334 28.2667V14.4C29.3334 14.0266 29.3334 13.8399 29.2607 13.6973C29.1968 13.5719 29.0948 13.4699 28.9693 13.406C28.8267 13.3333 28.6401 13.3333 28.2667 13.3333L25.0667 13.3333C24.6933 13.3333 24.5066 13.3333 24.364 13.406C24.2386 13.4699 24.1366 13.5719 24.0727 13.6973C24 13.8399 24 14.0266 24 14.4V17.6C24 17.9734 24 18.16 23.9274 18.3026C23.8634 18.4281 23.7615 18.5301 23.636 18.594C23.4934 18.6667 23.3067 18.6667 22.9334 18.6667H19.7334C19.36 18.6667 19.1733 18.6667 19.0307 18.7393C18.9053 18.8032 18.8033 18.9052 18.7393 19.0307C18.6667 19.1733 18.6667 19.36 18.6667 19.7333V22.9333C18.6667 23.3067 18.6667 23.4934 18.594 23.636C18.5301 23.7614 18.4281 23.8634 18.3027 23.9273C18.1601 24 17.9734 24 17.6 24H14.4C14.0267 24 13.84 24 13.6974 24.0727C13.5719 24.1366 13.4699 24.2386 13.406 24.364C13.3334 24.5066 13.3334 24.6933 13.3334 25.0667V28.2667C13.3334 28.64 13.3334 28.8267 13.406 28.9693C13.4699 29.0948 13.5719 29.1967 13.6974 29.2607C13.84 29.3333 14.0267 29.3333 14.4 29.3333L28.2667 29.3333Z" stroke="#0F0F0F" stroke-width="2" stroke-linecap="round" stroke-linejoin="round"/>
<path d="M13.3334 9.06666C13.3334 8.69329 13.3334 8.5066 13.406 8.364C13.4699 8.23855 13.5719 8.13657 13.6974 8.07265C13.84 7.99999 14.0267 7.99999 14.4 7.99999H17.6C17.9734 7.99999 18.1601 7.99999 18.3027 8.07265C18.4281 8.13657 18.5301 8.23855 18.594 8.364C18.6667 8.5066 18.6667 8.69329 18.6667 9.06666V12.2667C18.6667 12.64 18.6667 12.8267 18.594 12.9693C18.5301 13.0948 18.4281 13.1967 18.3027 13.2607C18.1601 13.3333 17.9734 13.3333 17.6 13.3333H14.4C14.0267 13.3333 13.84 13.3333 13.6974 13.2607C13.5719 13.1967 13.4699 13.0948 13.406 12.9693C13.3334 12.8267 13.3334 12.64 13.3334 12.2667V9.06666Z" stroke="#0F0F0F" stroke-width="2" stroke-linecap="round" stroke-linejoin="round"/>
<path d="M4.00002 17.0667C4.00002 16.6933 4.00002 16.5066 4.07268 16.364C4.1366 16.2386 4.23859 16.1366 4.36403 16.0727C4.50663 16 4.69332 16 5.06669 16H8.26669C8.64005 16 8.82674 16 8.96935 16.0727C9.09479 16.1366 9.19678 16.2386 9.26069 16.364C9.33335 16.5066 9.33335 16.6933 9.33335 17.0667V20.2667C9.33335 20.64 9.33335 20.8267 9.26069 20.9693C9.19678 21.0948 9.09479 21.1967 8.96935 21.2607C8.82674 21.3333 8.64005 21.3333 8.26669 21.3333H5.06669C4.69332 21.3333 4.50663 21.3333 4.36403 21.2607C4.23859 21.1967 4.1366 21.0948 4.07268 20.9693C4.00002 20.8267 4.00002 20.64 4.00002 20.2667V17.0667Z" stroke="#0F0F0F" stroke-width="2" stroke-linecap="round" stroke-linejoin="round"/>
<path d="M2.66669 3.73332C2.66669 3.35995 2.66669 3.17327 2.73935 3.03066C2.80326 2.90522 2.90525 2.80323 3.03069 2.73932C3.1733 2.66666 3.35999 2.66666 3.73335 2.66666H6.93335C7.30672 2.66666 7.49341 2.66666 7.63601 2.73932C7.76146 2.80323 7.86344 2.90522 7.92736 3.03066C8.00002 3.17327 8.00002 3.35995 8.00002 3.73332V6.93332C8.00002 7.30669 8.00002 7.49338 7.92736 7.63598C7.86344 7.76142 7.76146 7.86341 7.63601 7.92733C7.49341 7.99999 7.30672 7.99999 6.93335 7.99999H3.73335C3.35999 7.99999 3.1733 7.99999 3.03069 7.92733C2.90525 7.86341 2.80326 7.76142 2.73935 7.63598C2.66669 7.49338 2.66669 7.30669 2.66669 6.93332V3.73332Z" stroke="#0F0F0F" stroke-width="2" stroke-linecap="round" stroke-linejoin="round"/>
</svg>
