<svg width="32" height="32" viewBox="0 0 32 32" fill="none" xmlns="http://www.w3.org/2000/svg">
<path d="M11.3333 16.6667C11.3333 16.6667 13.0833 18.6667 16 18.6667C18.9167 18.6667 20.6667 16.6667 20.6667 16.6667M19.6667 10H19.68M12.3333 10H12.3467M9.33333 24V27.114C9.33333 27.8245 9.33333 28.1797 9.47897 28.3622C9.60563 28.5208 9.79769 28.6131 10.0007 28.6129C10.2342 28.6127 10.5116 28.3908 11.0663 27.9469L14.247 25.4024C14.8967 24.8826 15.2216 24.6228 15.5833 24.4379C15.9043 24.274 16.2459 24.1541 16.599 24.0817C16.9969 24 17.4129 24 18.245 24H21.6C23.8402 24 24.9603 24 25.816 23.564C26.5686 23.1805 27.1805 22.5686 27.564 21.816C28 20.9603 28 19.8402 28 17.6V10.4C28 8.15979 28 7.03968 27.564 6.18404C27.1805 5.43139 26.5686 4.81947 25.816 4.43597C24.9603 4 23.8402 4 21.6 4H10.4C8.15979 4 7.03969 4 6.18404 4.43597C5.43139 4.81947 4.81947 5.43139 4.43597 6.18404C4 7.03968 4 8.15979 4 10.4V18.6667C4 19.9066 4 20.5266 4.1363 21.0353C4.50617 22.4156 5.58436 23.4938 6.96472 23.8637C7.47339 24 8.09337 24 9.33333 24ZM20.3333 10C20.3333 10.3682 20.0349 10.6667 19.6667 10.6667C19.2985 10.6667 19 10.3682 19 10C19 9.63181 19.2985 9.33333 19.6667 9.33333C20.0349 9.33333 20.3333 9.63181 20.3333 10ZM13 10C13 10.3682 12.7015 10.6667 12.3333 10.6667C11.9651 10.6667 11.6667 10.3682 11.6667 10C11.6667 9.63181 11.9651 9.33333 12.3333 9.33333C12.7015 9.33333 13 9.63181 13 10Z" stroke="#0F0F0F" stroke-width="2" stroke-linecap="round" stroke-linejoin="round"/>
</svg>
