<svg width="32" height="32" viewBox="0 0 32 32" fill="none" xmlns="http://www.w3.org/2000/svg">
<path d="M18.6667 26.6667C18.6667 28.1394 17.4728 29.3333 16 29.3333C14.5272 29.3333 13.3333 28.1394 13.3333 26.6667M18.6667 26.6667C18.6667 25.1939 17.4728 24 16 24M18.6667 26.6667H28M13.3333 26.6667C13.3333 25.1939 14.5272 24 16 24M13.3333 26.6667H4M16 24V18.6667M28 6.66667C28 8.87581 22.6274 10.6667 16 10.6667C9.37258 10.6667 4 8.87581 4 6.66667M28 6.66667C28 4.45753 22.6274 2.66667 16 2.66667C9.37258 2.66667 4 4.45753 4 6.66667M28 6.66667V14.6667C28 16.88 22.6667 18.6667 16 18.6667M4 6.66667V14.6667C4 16.88 9.33333 18.6667 16 18.6667" stroke="#0F0F0F" stroke-width="2" stroke-linecap="round" stroke-linejoin="round"/>
</svg>
