<svg width="32" height="32" viewBox="0 0 32 32" fill="none" xmlns="http://www.w3.org/2000/svg">
<path d="M21.3333 24L24 26.6667L29.3333 21.3333M16 20H10.6667C8.18163 20 6.93912 20 5.95901 20.406C4.6522 20.9473 3.61393 21.9855 3.07263 23.2924C2.66666 24.2725 2.66666 25.515 2.66666 28M20.6667 4.38768C22.6212 5.17886 24 7.09508 24 9.33333C24 11.5716 22.6212 13.4878 20.6667 14.279M18 9.33333C18 12.2789 15.6122 14.6667 12.6667 14.6667C9.72114 14.6667 7.33332 12.2789 7.33332 9.33333C7.33332 6.38781 9.72114 4 12.6667 4C15.6122 4 18 6.38781 18 9.33333Z" stroke="#0F0F0F" stroke-width="2" stroke-linecap="round" stroke-linejoin="round"/>
</svg>
