<svg width="32" height="32" viewBox="0 0 32 32" fill="none" xmlns="http://www.w3.org/2000/svg">
<path d="M25.3333 13.3333L6.66666 13.3333M25.3333 13.3333L27.8189 17.4759C28.3759 18.4043 28.6544 18.8685 28.7991 19.3682C28.9273 19.811 28.9779 20.2726 28.9489 20.7327C28.9161 21.2518 28.7449 21.7654 28.4025 22.7925L28.1254 23.6239C27.6008 25.1975 27.3386 25.9843 26.8521 26.566C26.4225 27.0797 25.8708 27.4774 25.2477 27.7225C24.5419 28 23.7126 28 22.0538 28L9.94619 28C8.28743 28 7.45805 28 6.75234 27.7225C6.12916 27.4774 5.57749 27.0797 5.14791 26.566C4.66144 25.9843 4.39916 25.1975 3.87462 23.6239L3.59751 22.7925C3.25513 21.7654 3.08394 21.2518 3.05114 20.7327C3.02207 20.2726 3.07274 19.811 3.20091 19.3682C3.34556 18.8685 3.62408 18.4043 4.18113 17.4759L6.66666 13.3333M25.3333 13.3333L25.8897 11.3861C26.1535 10.4629 26.2853 10.0013 26.1817 9.63611C26.091 9.31621 25.884 9.04176 25.6013 8.86662C25.2786 8.66668 24.7986 8.66668 23.8384 8.66668L8.16156 8.66668C7.20143 8.66668 6.72137 8.66668 6.39869 8.86662C6.11603 9.04176 5.90901 9.31621 5.81826 9.63611C5.71465 10.0013 5.84654 10.4629 6.1103 11.3861L6.66666 13.3333M16 8.66668H11.2857C10.5911 8.66668 9.92493 8.38573 9.43377 7.88563C8.9426 7.38553 8.66666 6.70725 8.66666 6.00001C8.66666 5.29277 8.9426 4.61449 9.43377 4.11439C9.92493 3.6143 10.5911 3.33334 11.2857 3.33334C14.9524 3.33334 16 8.66668 16 8.66668ZM16 8.66668H20.7143C21.4089 8.66668 22.0751 8.38573 22.5662 7.88563C23.0574 7.38553 23.3333 6.70725 23.3333 6.00001C23.3333 5.29277 23.0574 4.61449 22.5662 4.11439C22.0751 3.6143 21.4089 3.33334 20.7143 3.33334C17.0476 3.33334 16 8.66668 16 8.66668Z" stroke="#0F0F0F" stroke-width="2" stroke-linecap="round" stroke-linejoin="round"/>
</svg>
