<svg width="32" height="32" viewBox="0 0 32 32" fill="none" xmlns="http://www.w3.org/2000/svg">
<path d="M17.3333 18.6667L13.3333 14.6667M20.0138 4.66669V2.66669M25.2662 6.74757L26.6804 5.33335M25.2662 17.3334L26.6804 18.7476M14.6805 6.74757L13.2662 5.33335M27.3471 12H29.3471M8.17514 27.8249L20.4915 15.5085C21.0195 14.9805 21.2835 14.7165 21.3824 14.412C21.4694 14.1443 21.4694 13.8558 21.3824 13.588C21.2835 13.2836 21.0195 13.0195 20.4915 12.4915L19.5085 11.5085C18.9805 10.9805 18.7164 10.7165 18.412 10.6176C18.1442 10.5306 17.8557 10.5306 17.588 10.6176C17.2835 10.7165 17.0195 10.9805 16.4915 11.5085L4.17514 23.8249C3.64712 24.3529 3.38311 24.6169 3.28419 24.9213C3.19718 25.1891 3.19718 25.4776 3.28419 25.7454C3.38311 26.0498 3.64712 26.3138 4.17514 26.8418L5.15815 27.8249C5.68618 28.3529 5.95019 28.6169 6.25463 28.7158C6.52242 28.8028 6.81088 28.8028 7.07867 28.7158C7.38311 28.6169 7.64712 28.3529 8.17514 27.8249Z" stroke="black" stroke-width="2" stroke-linecap="round" stroke-linejoin="round"/>
</svg>
