<svg width="16" height="17" viewBox="0 0 16 17" fill="none" xmlns="http://www.w3.org/2000/svg">
<path d="M6.00017 14.5V9.56667C6.00017 9.1933 6.00017 9.00661 6.07283 8.86401C6.13674 8.73857 6.23873 8.63658 6.36417 8.57266C6.50678 8.5 6.69346 8.5 7.06683 8.5H8.9335C9.30687 8.5 9.49355 8.5 9.63616 8.57266C9.7616 8.63658 9.86359 8.73857 9.9275 8.86401C10.0002 9.00661 10.0002 9.1933 10.0002 9.56667V14.5M1.3335 6.83333L7.36017 2.31333C7.58967 2.1412 7.70442 2.05514 7.83045 2.02196C7.9417 1.99268 8.05863 1.99268 8.16988 2.02196C8.29591 2.05514 8.41066 2.1412 8.64017 2.31333L14.6668 6.83333M2.66683 5.83333V12.3667C2.66683 13.1134 2.66683 13.4868 2.81216 13.772C2.93999 14.0229 3.14396 14.2268 3.39484 14.3547C3.68006 14.5 4.05343 14.5 4.80017 14.5H11.2002C11.9469 14.5 12.3203 14.5 12.6055 14.3547C12.8564 14.2268 13.0603 14.0229 13.1882 13.772C13.3335 13.4868 13.3335 13.1134 13.3335 12.3667V5.83333L9.28017 2.79333C8.82115 2.44907 8.59165 2.27695 8.33959 2.21059C8.1171 2.15202 7.88323 2.15202 7.66074 2.21059C7.40868 2.27695 7.17918 2.44907 6.72017 2.79333L2.66683 5.83333Z" stroke="black" stroke-width="2" stroke-linecap="round" stroke-linejoin="round"/>
</svg>
