<svg width="16" height="17" viewBox="0 0 16 17" fill="none" xmlns="http://www.w3.org/2000/svg">
<path d="M1.3335 5.16663L6.77678 8.97692C7.21756 9.28547 7.43795 9.43974 7.67767 9.4995C7.88943 9.55228 8.1109 9.55228 8.32265 9.4995C8.56238 9.43974 8.78277 9.28547 9.22355 8.97692L14.6668 5.16663M4.5335 13.8333H11.4668C12.5869 13.8333 13.147 13.8333 13.5748 13.6153C13.9511 13.4236 14.2571 13.1176 14.4488 12.7413C14.6668 12.3135 14.6668 11.7534 14.6668 10.6333V6.36663C14.6668 5.24652 14.6668 4.68647 14.4488 4.25865C14.2571 3.88232 13.9511 3.57636 13.5748 3.38461C13.147 3.16663 12.5869 3.16663 11.4668 3.16663H4.5335C3.41339 3.16663 2.85334 3.16663 2.42552 3.38461C2.04919 3.57636 1.74323 3.88232 1.55148 4.25865C1.3335 4.68647 1.3335 5.24652 1.3335 6.36663V10.6333C1.3335 11.7534 1.3335 12.3135 1.55148 12.7413C1.74323 13.1176 2.04919 13.4236 2.42552 13.6153C2.85334 13.8333 3.41339 13.8333 4.5335 13.8333Z" stroke="black" stroke-width="2" stroke-linecap="round" stroke-linejoin="round"/>
</svg>
