<svg width="32" height="32" viewBox="0 0 32 32" fill="none" xmlns="http://www.w3.org/2000/svg">
<path d="M10.6667 18.6667C10.6667 18.6667 12.6667 21.3334 16.0001 21.3334C19.3334 21.3334 21.3334 18.6667 21.3334 18.6667M20.0001 12H20.0134M12.0001 12H12.0134M29.3334 16C29.3334 23.3638 23.3639 29.3334 16.0001 29.3334C8.63628 29.3334 2.66675 23.3638 2.66675 16C2.66675 8.63622 8.63628 2.66669 16.0001 2.66669C23.3639 2.66669 29.3334 8.63622 29.3334 16ZM20.6667 12C20.6667 12.3682 20.3683 12.6667 20.0001 12.6667C19.6319 12.6667 19.3334 12.3682 19.3334 12C19.3334 11.6318 19.6319 11.3334 20.0001 11.3334C20.3683 11.3334 20.6667 11.6318 20.6667 12ZM12.6667 12C12.6667 12.3682 12.3683 12.6667 12.0001 12.6667C11.6319 12.6667 11.3334 12.3682 11.3334 12C11.3334 11.6318 11.6319 11.3334 12.0001 11.3334C12.3683 11.3334 12.6667 11.6318 12.6667 12Z" stroke="black" stroke-width="2" stroke-linecap="round" stroke-linejoin="round"/>
</svg>
