<svg width="222" height="43" viewBox="0 0 222 43" fill="none" xmlns="http://www.w3.org/2000/svg">
<path d="M217.872 16.4598V1.67163H221.701V16.4598H217.872Z" fill="white"/>
<path d="M208.379 16.7027C206.292 16.7027 204.712 15.4873 204.712 13.3197V13.2792C204.712 10.99 206.434 9.83535 209.007 9.83535C210.02 9.83535 211.012 10.0177 211.64 10.2608V10.0784C211.64 8.92375 210.931 8.27551 209.452 8.27551C208.298 8.27551 207.406 8.5186 206.414 8.88324L205.624 6.18896C206.859 5.68252 208.176 5.33813 210.06 5.33813C212.025 5.33813 213.362 5.80406 214.233 6.67515C215.064 7.48546 215.408 8.61989 215.408 10.1595V16.4596H211.62V15.3049C210.85 16.1355 209.817 16.7027 208.379 16.7027ZM209.756 14.2921C210.891 14.2921 211.681 13.583 211.681 12.4891V11.9827C211.276 11.8206 210.729 11.6991 210.161 11.6991C209.047 11.6991 208.399 12.2258 208.399 13.0563V13.0968C208.399 13.8464 208.966 14.2921 209.756 14.2921Z" fill="white"/>
<path d="M200.464 16.6824C198.155 16.6824 196.798 15.6695 196.798 13.0563V8.57934H195.501V5.50016H196.798V2.72485H200.626V5.50016H203.179V8.57934H200.626V12.3068C200.626 13.0766 200.971 13.4007 201.68 13.4007C202.186 13.4007 202.672 13.2589 203.138 13.036V16.0342C202.45 16.4191 201.538 16.6824 200.464 16.6824Z" fill="white"/>
<path d="M187.039 16.4597V5.50026H190.888V7.70835C191.516 6.20928 192.529 5.23691 194.352 5.31794V9.36948H194.028C192.022 9.36948 190.888 10.5242 190.888 13.0361V16.4597H187.039Z" fill="white"/>
<path d="M178.931 16.723C175.446 16.723 172.914 14.1502 172.914 11.0305V10.99C172.914 7.87033 175.467 5.25708 178.971 5.25708C182.476 5.25708 185.008 7.82981 185.008 10.9495V10.99C185.008 14.1097 182.455 16.723 178.931 16.723ZM178.971 13.4615C180.369 13.4615 181.28 12.3473 181.28 11.0305V10.99C181.28 9.63275 180.288 8.49832 178.931 8.49832C177.533 8.49832 176.641 9.61249 176.641 10.9495V10.99C176.641 12.327 177.614 13.4615 178.971 13.4615Z" fill="white"/>
<path d="M159.626 16.4597V2.2793H165.724C169.289 2.2793 171.599 4.12275 171.599 7.24244V7.28296C171.599 10.6457 169.026 12.4082 165.521 12.4082H163.556V16.4597H159.626ZM163.556 9.32899H165.44C166.818 9.32899 167.689 8.57945 167.689 7.46528V7.42476C167.689 6.2093 166.818 5.58131 165.42 5.58131H163.556V9.32899Z" fill="white"/>
<path d="M145.702 12.1043L147.768 5.50024H151.719L147.708 16.1963C146.755 18.7691 145.722 19.7617 143.534 19.7617C142.177 19.7617 141.043 19.397 140.03 18.8096L141.205 16.1153C141.833 16.4799 142.461 16.7028 142.886 16.7028C143.271 16.7028 143.534 16.6015 143.798 16.2571L139.503 5.50024H143.514L145.702 12.1043Z" fill="white"/>
<path d="M131.416 16.7027C129.329 16.7027 127.749 15.4873 127.749 13.3197V13.2792C127.749 10.99 129.471 9.83535 132.044 9.83535C133.057 9.83535 134.049 10.0177 134.677 10.2608V10.0784C134.677 8.92375 133.968 8.27551 132.489 8.27551C131.335 8.27551 130.443 8.5186 129.451 8.88324L128.661 6.18896C129.896 5.68252 131.213 5.33813 133.097 5.33813C135.062 5.33813 136.399 5.80406 137.27 6.67515C138.101 7.48546 138.445 8.61989 138.445 10.1595V16.4596H134.657V15.3049C133.887 16.1355 132.854 16.7027 131.416 16.7027ZM132.793 14.2921C133.928 14.2921 134.718 13.583 134.718 12.4891V11.9827C134.313 11.8206 133.766 11.6991 133.198 11.6991C132.084 11.6991 131.436 12.2258 131.436 13.0563V13.0968C131.436 13.8464 132.003 14.2921 132.793 14.2921Z" fill="white"/>
<path d="M113.509 16.5407L110.166 5.50023H113.914L115.352 11.0103L117.054 5.45972H120.214L121.916 11.0509L123.395 5.50023H127.102L123.719 16.5407H120.396L118.614 10.828L116.791 16.5407H113.509Z" fill="white"/>
<path d="M104.209 16.723C100.766 16.723 98.3347 14.4136 98.3347 11.0305V10.99C98.3347 7.7893 100.624 5.25708 103.865 5.25708C107.633 5.25708 109.375 8.03239 109.375 11.2534C109.375 11.4965 109.375 11.7801 109.355 12.0434H102.022C102.325 13.2386 103.197 13.8464 104.392 13.8464C105.324 13.8464 106.033 13.502 106.823 12.7322L108.95 14.4946C107.896 15.8316 106.377 16.723 104.209 16.723ZM101.961 10.0784H105.79C105.648 8.86296 104.918 8.09316 103.865 8.09316C102.852 8.09316 102.163 8.86296 101.961 10.0784Z" fill="white"/>
<path d="M94.2832 16.6824C91.9738 16.6824 90.6166 15.6695 90.6166 13.0563V8.57934H89.3201V5.50016H90.6166V2.72485H94.4453V5.50016H96.9977V8.57934H94.4453V12.3068C94.4453 13.0766 94.7897 13.4007 95.4987 13.4007C96.0051 13.4007 96.4913 13.2589 96.9572 13.036V16.0342C96.2685 16.4191 95.3569 16.6824 94.2832 16.6824Z" fill="white"/>
<path d="M80.6347 16.7027C78.5481 16.7027 76.968 15.4873 76.968 13.3197V13.2792C76.968 10.99 78.6899 9.83535 81.2627 9.83535C82.2755 9.83535 83.2682 10.0177 83.8962 10.2608V10.0784C83.8962 8.92375 83.1871 8.27551 81.7083 8.27551C80.5536 8.27551 79.6623 8.5186 78.6697 8.88324L77.8796 6.18896C79.1153 5.68252 80.4321 5.33813 82.3161 5.33813C84.2811 5.33813 85.6181 5.80406 86.4892 6.67515C87.3197 7.48546 87.6641 8.61989 87.6641 10.1595V16.4596H83.8759V15.3049C83.1061 16.1355 82.073 16.7027 80.6347 16.7027ZM82.0122 14.2921C83.1466 14.2921 83.9367 13.583 83.9367 12.4891V11.9827C83.5315 11.8206 82.9846 11.6991 82.4173 11.6991C81.3032 11.6991 80.6549 12.2258 80.6549 13.0563V13.0968C80.6549 13.8464 81.2221 14.2921 82.0122 14.2921Z" fill="white"/>
<path d="M68.777 16.7432C64.3609 16.7432 61.0791 13.7046 61.0791 9.40994V9.36942C61.0791 5.23684 64.3203 1.99561 68.696 1.99561C71.1877 1.99561 72.9501 2.74514 74.4492 4.04164L72.1398 6.8372C71.1269 5.98638 70.1343 5.50019 68.7163 5.50019C66.6702 5.50019 65.0901 7.20184 65.0901 9.36942V9.40994C65.0901 11.7193 66.6905 13.3602 68.9391 13.3602C69.9115 13.3602 70.6408 13.1576 71.208 12.7727V11.0508H68.4327V8.17422H74.9354V14.5351C73.4363 15.7911 71.37 16.7432 68.777 16.7432Z" fill="white"/>
<path d="M189.072 39.4929C186.459 39.4929 184.21 37.3253 184.21 33.8207V33.7802C184.21 30.2149 186.459 28.0473 189.052 28.0473C190.713 28.0473 191.686 28.7968 192.395 29.6274V24.4617H196.244V39.2498H192.395V37.7913C191.645 38.7029 190.713 39.4929 189.072 39.4929ZM190.227 36.2719C191.483 36.2719 192.476 35.2388 192.476 33.7802V33.7397C192.476 32.3014 191.483 31.248 190.227 31.248C188.991 31.248 187.978 32.2812 187.978 33.7397V33.7802C187.978 35.2388 188.991 36.2719 190.227 36.2719Z" fill="white"/>
<path d="M177.374 39.513C173.931 39.513 171.5 37.2036 171.5 33.8206V33.7801C171.5 30.5793 173.789 28.0471 177.03 28.0471C180.798 28.0471 182.54 30.8224 182.54 34.0434C182.54 34.2865 182.54 34.5701 182.52 34.8335H175.187C175.491 36.0287 176.362 36.6364 177.557 36.6364C178.489 36.6364 179.198 36.292 179.988 35.5222L182.115 37.2846C181.061 38.6217 179.542 39.513 177.374 39.513ZM175.126 32.8685H178.955C178.813 31.653 178.084 30.8832 177.03 30.8832C176.017 30.8832 175.328 31.653 175.126 32.8685Z" fill="white"/>
<path d="M167.448 39.4725C165.138 39.4725 163.781 38.4596 163.781 35.8463V31.3694H162.484V28.2902H163.781V25.5149H167.61V28.2902H170.162V31.3694H167.61V35.0968C167.61 35.8666 167.954 36.1907 168.663 36.1907C169.169 36.1907 169.656 36.0489 170.122 35.8261V38.8242C169.433 39.2091 168.521 39.4725 167.448 39.4725Z" fill="white"/>
<path d="M156.615 27.2978V24.4617H160.605V27.2978H156.615ZM156.696 39.2498V28.2904H160.524V39.2498H156.696Z" fill="white"/>
<path d="M136.525 39.2496V28.2902H140.374V29.7893C141.083 28.8777 142.096 28.0471 143.635 28.0471C145.094 28.0471 146.208 28.6954 146.796 29.8298C147.748 28.7359 148.862 28.0471 150.462 28.0471C152.792 28.0471 154.21 29.5057 154.21 32.0582V39.2496H150.361V33.2939C150.361 32.0987 149.773 31.4504 148.862 31.4504C147.95 31.4504 147.282 32.0987 147.282 33.2939V39.2496H143.453V33.2939C143.453 32.0987 142.845 31.4504 141.934 31.4504C141.022 31.4504 140.374 32.0987 140.374 33.2939V39.2496H136.525Z" fill="white"/>
<path d="M130.047 27.2978V24.4617H134.037V27.2978H130.047ZM130.128 39.2498V28.2904H133.956V39.2498H130.128Z" fill="white"/>
<path d="M117.341 39.2498V25.0693H121.271V35.8059H128.138V39.2498H117.341Z" fill="white"/>
<path d="M97.8503 39.2498V24.4617H101.699V29.7895C102.408 28.8779 103.421 28.0473 104.981 28.0473C107.311 28.0473 108.708 29.5869 108.708 32.0786V39.2498H104.88V33.3143C104.88 32.0988 104.252 31.4506 103.32 31.4506C102.388 31.4506 101.699 32.0988 101.699 33.3143V39.2498H97.8503Z" fill="white"/>
<path d="M91.2195 39.513C87.8972 39.513 85.4866 36.92 85.4866 33.8206V33.7801C85.4866 30.6806 87.877 28.0674 91.3411 28.0674C93.5897 28.0674 95.0887 29.0398 96.0206 30.4983L93.4276 32.4431C92.8806 31.734 92.2932 31.2884 91.3816 31.2884C90.1256 31.2884 89.214 32.4025 89.214 33.7395V33.7801C89.214 35.1981 90.1053 36.2718 91.4018 36.2718C92.3337 36.2718 92.9212 35.8464 93.5086 35.1373L96.0814 37.001C95.0685 38.5001 93.6099 39.513 91.2195 39.513Z" fill="white"/>
<path d="M78.6706 39.513C75.2268 39.513 72.7959 37.2036 72.7959 33.8206V33.7801C72.7959 30.5793 75.085 28.0471 78.3263 28.0471C82.0942 28.0471 83.8364 30.8224 83.8364 34.0434C83.8364 34.2865 83.8364 34.5701 83.8161 34.8335H76.4828C76.7867 36.0287 77.6578 36.6364 78.853 36.6364C79.7848 36.6364 80.4938 36.292 81.2839 35.5222L83.411 37.2846C82.3576 38.6217 80.8382 39.513 78.6706 39.513ZM76.422 32.8685H80.2507C80.1089 31.653 79.3797 30.8832 78.3263 30.8832C77.3134 30.8832 76.6246 31.653 76.422 32.8685Z" fill="white"/>
<path d="M65.0093 39.2498V28.5132H60.7754V25.0693H73.1934V28.5132H68.9393V39.2498H65.0093Z" fill="white"/>
<path d="M11.395 40.5159L0.000247002 40.5159L4.18125e-05 9.49621L11.3947 5.06483L11.395 40.5159Z" fill="white"/>
<path d="M11.395 0.057373L0 9.50604V13.9846H11.395V0.057373Z" fill="white"/>
<path d="M0.0302747 40.5754L0.0302729 29.1807L24.0579 29.1805L24.0579 40.5751L0.0302747 40.5754Z" fill="white"/>
<path d="M24.0579 10.1289L35.4526 10.1289L35.4528 30.3866L25.324 40.5155H24.0582L24.0579 10.1289Z" fill="white"/>
<path d="M53.8115 0.000732422L53.8115 11.3955L24.0559 11.3955L24.0559 9.49624L35.4529 0.000803824L53.8115 0.000732422Z" fill="white"/>
<path d="M39.2512 29.1206L39.2512 17.7256L53.8096 6.38815L53.8096 17.5934L39.2512 29.1206Z" fill="white"/>
<path d="M21.0781 40.5155L21.078 32.9189L35.4527 21.5239L35.4527 32.9189L25.9569 40.5156L21.0781 40.5155Z" fill="white"/>
<path d="M15.1951 27.8545L15.1951 16.4595L35.4528 0.000106277L35.4528 11.3951L15.1951 27.8545Z" fill="white"/>
</svg>
