<svg width="176" height="35" viewBox="0 0 176 35" fill="none" xmlns="http://www.w3.org/2000/svg">
<path d="M172.08 13.9549V2.2749H175.104V13.9549H172.08Z" fill="#0F0F0F"/>
<path d="M164.582 14.1469C162.934 14.1469 161.686 13.1869 161.686 11.4749V11.4429C161.686 9.6349 163.046 8.7229 165.078 8.7229C165.878 8.7229 166.662 8.8669 167.158 9.0589V8.9149C167.158 8.0029 166.598 7.4909 165.43 7.4909C164.518 7.4909 163.814 7.6829 163.03 7.9709L162.406 5.8429C163.382 5.4429 164.422 5.1709 165.91 5.1709C167.462 5.1709 168.518 5.5389 169.206 6.2269C169.862 6.8669 170.134 7.7629 170.134 8.9789V13.9549H167.142V13.0429C166.534 13.6989 165.718 14.1469 164.582 14.1469ZM165.67 12.2429C166.566 12.2429 167.19 11.6829 167.19 10.8189V10.4189C166.87 10.2909 166.438 10.1949 165.99 10.1949C165.11 10.1949 164.598 10.6109 164.598 11.2669V11.2989C164.598 11.8909 165.046 12.2429 165.67 12.2429Z" fill="#0F0F0F"/>
<path d="M158.331 14.1309C156.507 14.1309 155.435 13.3309 155.435 11.2669V7.73093H154.411V5.29893H155.435V3.10693H158.459V5.29893H160.475V7.73093H158.459V10.6749C158.459 11.2829 158.731 11.5389 159.291 11.5389C159.691 11.5389 160.075 11.4269 160.443 11.2509V13.6189C159.899 13.9229 159.179 14.1309 158.331 14.1309Z" fill="#0F0F0F"/>
<path d="M147.728 13.9548V5.29884H150.768V7.04284C151.264 5.85884 152.064 5.09084 153.504 5.15484V8.35484H153.248C151.664 8.35484 150.768 9.26684 150.768 11.2508V13.9548H147.728Z" fill="#0F0F0F"/>
<path d="M141.324 14.1629C138.572 14.1629 136.572 12.1309 136.572 9.66693V9.63493C136.572 7.17093 138.588 5.10693 141.356 5.10693C144.124 5.10693 146.124 7.13893 146.124 9.60293V9.63493C146.124 12.0989 144.108 14.1629 141.324 14.1629ZM141.356 11.5869C142.46 11.5869 143.18 10.7069 143.18 9.66693V9.63493C143.18 8.56293 142.396 7.66693 141.324 7.66693C140.22 7.66693 139.516 8.54693 139.516 9.60293V9.63493C139.516 10.6909 140.284 11.5869 141.356 11.5869Z" fill="#0F0F0F"/>
<path d="M126.076 13.9549V2.75488H130.892C133.708 2.75488 135.532 4.21088 135.532 6.67488V6.70688C135.532 9.36288 133.5 10.7549 130.732 10.7549H129.18V13.9549H126.076ZM129.18 8.32288H130.668C131.756 8.32288 132.444 7.73088 132.444 6.85088V6.81888C132.444 5.85888 131.756 5.36288 130.652 5.36288H129.18V8.32288Z" fill="#0F0F0F"/>
<path d="M115.079 10.5148L116.711 5.29883H119.831L116.663 13.7468C115.911 15.7788 115.095 16.5628 113.367 16.5628C112.295 16.5628 111.399 16.2748 110.599 15.8108L111.527 13.6828C112.023 13.9708 112.519 14.1468 112.855 14.1468C113.159 14.1468 113.367 14.0668 113.575 13.7948L110.183 5.29883H113.351L115.079 10.5148Z" fill="#0F0F0F"/>
<path d="M103.795 14.1469C102.147 14.1469 100.899 13.1869 100.899 11.4749V11.4429C100.899 9.6349 102.259 8.7229 104.291 8.7229C105.091 8.7229 105.875 8.8669 106.371 9.0589V8.9149C106.371 8.0029 105.811 7.4909 104.643 7.4909C103.731 7.4909 103.027 7.6829 102.243 7.9709L101.619 5.8429C102.595 5.4429 103.635 5.1709 105.123 5.1709C106.675 5.1709 107.731 5.5389 108.419 6.2269C109.075 6.8669 109.347 7.7629 109.347 8.9789V13.9549H106.355V13.0429C105.747 13.6989 104.931 14.1469 103.795 14.1469ZM104.883 12.2429C105.779 12.2429 106.403 11.6829 106.403 10.8189V10.4189C106.083 10.2909 105.651 10.1949 105.203 10.1949C104.323 10.1949 103.811 10.6109 103.811 11.2669V11.2989C103.811 11.8909 104.259 12.2429 104.883 12.2429Z" fill="#0F0F0F"/>
<path d="M89.652 14.0188L87.012 5.29885H89.972L91.108 9.65085L92.452 5.26685H94.948L96.292 9.68285L97.46 5.29885H100.388L97.716 14.0188H95.092L93.684 9.50685L92.244 14.0188H89.652Z" fill="#0F0F0F"/>
<path d="M82.307 14.1629C79.587 14.1629 77.667 12.3389 77.667 9.66693V9.63493C77.667 7.10693 79.475 5.10693 82.035 5.10693C85.011 5.10693 86.387 7.29893 86.387 9.84293C86.387 10.0349 86.387 10.2589 86.371 10.4669H80.579C80.819 11.4109 81.507 11.8909 82.451 11.8909C83.187 11.8909 83.747 11.6189 84.371 11.0109L86.051 12.4029C85.219 13.4589 84.019 14.1629 82.307 14.1629ZM80.531 8.91493H83.555C83.443 7.95493 82.867 7.34693 82.035 7.34693C81.235 7.34693 80.691 7.95493 80.531 8.91493Z" fill="#0F0F0F"/>
<path d="M74.4669 14.1309C72.6429 14.1309 71.5709 13.3309 71.5709 11.2669V7.73093H70.5469V5.29893H71.5709V3.10693H74.5949V5.29893H76.6109V7.73093H74.5949V10.6749C74.5949 11.2829 74.8669 11.5389 75.4269 11.5389C75.8269 11.5389 76.2109 11.4269 76.5789 11.2509V13.6189C76.0349 13.9229 75.3149 14.1309 74.4669 14.1309Z" fill="#0F0F0F"/>
<path d="M63.6868 14.1469C62.0388 14.1469 60.7908 13.1869 60.7908 11.4749V11.4429C60.7908 9.6349 62.1508 8.7229 64.1828 8.7229C64.9828 8.7229 65.7668 8.8669 66.2628 9.0589V8.9149C66.2628 8.0029 65.7028 7.4909 64.5348 7.4909C63.6228 7.4909 62.9188 7.6829 62.1348 7.9709L61.5108 5.8429C62.4868 5.4429 63.5268 5.1709 65.0148 5.1709C66.5668 5.1709 67.6228 5.5389 68.3108 6.2269C68.9668 6.8669 69.2388 7.7629 69.2388 8.9789V13.9549H66.2468V13.0429C65.6388 13.6989 64.8228 14.1469 63.6868 14.1469ZM64.7748 12.2429C65.6708 12.2429 66.2948 11.6829 66.2948 10.8189V10.4189C65.9748 10.2909 65.5428 10.1949 65.0948 10.1949C64.2148 10.1949 63.7028 10.6109 63.7028 11.2669V11.2989C63.7028 11.8909 64.1508 12.2429 64.7748 12.2429Z" fill="#0F0F0F"/>
<path d="M54.3217 14.1788C50.8337 14.1788 48.2417 11.7788 48.2417 8.38676V8.35476C48.2417 5.09076 50.8017 2.53076 54.2577 2.53076C56.2257 2.53076 57.6177 3.12276 58.8017 4.14676L56.9777 6.35476C56.1777 5.68276 55.3937 5.29876 54.2737 5.29876C52.6577 5.29876 51.4097 6.64276 51.4097 8.35476V8.38676C51.4097 10.2108 52.6737 11.5068 54.4497 11.5068C55.2177 11.5068 55.7937 11.3468 56.2417 11.0428V9.68276H54.0497V7.41076H59.1857V12.4348C58.0017 13.4268 56.3697 14.1788 54.3217 14.1788Z" fill="#0F0F0F"/>
<path d="M149.333 32.1469C147.269 32.1469 145.493 30.4349 145.493 27.6669V27.6349C145.493 24.8189 147.269 23.1069 149.317 23.1069C150.629 23.1069 151.397 23.6989 151.957 24.3549V20.2749H154.997V31.9549H151.957V30.8029C151.365 31.5229 150.629 32.1469 149.333 32.1469ZM150.245 29.6029C151.237 29.6029 152.021 28.7869 152.021 27.6349V27.6029C152.021 26.4669 151.237 25.6349 150.245 25.6349C149.269 25.6349 148.469 26.4509 148.469 27.6029V27.6349C148.469 28.7869 149.269 29.6029 150.245 29.6029Z" fill="#0F0F0F"/>
<path d="M140.094 32.1629C137.374 32.1629 135.454 30.3389 135.454 27.6669V27.6349C135.454 25.1069 137.262 23.1069 139.822 23.1069C142.798 23.1069 144.174 25.2989 144.174 27.8429C144.174 28.0349 144.174 28.2589 144.158 28.4669H138.366C138.606 29.4109 139.294 29.8909 140.238 29.8909C140.974 29.8909 141.534 29.6189 142.158 29.0109L143.838 30.4029C143.006 31.4589 141.806 32.1629 140.094 32.1629ZM138.318 26.9149H141.342C141.23 25.9549 140.654 25.3469 139.822 25.3469C139.022 25.3469 138.478 25.9549 138.318 26.9149Z" fill="#0F0F0F"/>
<path d="M132.254 32.1309C130.43 32.1309 129.358 31.3309 129.358 29.2669V25.7309H128.334V23.2989H129.358V21.1069H132.382V23.2989H134.398V25.7309H132.382V28.6749C132.382 29.2829 132.654 29.5389 133.214 29.5389C133.614 29.5389 133.998 29.4269 134.366 29.2509V31.6189C133.822 31.9229 133.102 32.1309 132.254 32.1309Z" fill="#0F0F0F"/>
<path d="M123.697 22.5149V20.2749H126.849V22.5149H123.697ZM123.761 31.9549V23.2989H126.785V31.9549H123.761Z" fill="#0F0F0F"/>
<path d="M107.83 31.9549V23.2989H110.87V24.4829C111.43 23.7629 112.23 23.1069 113.446 23.1069C114.598 23.1069 115.478 23.6189 115.942 24.5149C116.694 23.6509 117.574 23.1069 118.838 23.1069C120.678 23.1069 121.798 24.2589 121.798 26.2749V31.9549H118.758V27.2509C118.758 26.3069 118.294 25.7949 117.574 25.7949C116.854 25.7949 116.326 26.3069 116.326 27.2509V31.9549H113.302V27.2509C113.302 26.3069 112.822 25.7949 112.102 25.7949C111.382 25.7949 110.87 26.3069 110.87 27.2509V31.9549H107.83Z" fill="#0F0F0F"/>
<path d="M102.713 22.5149V20.2749H105.865V22.5149H102.713ZM102.777 31.9549V23.2989H105.801V31.9549H102.777Z" fill="#0F0F0F"/>
<path d="M92.6785 31.9549V20.7549H95.7825V29.2349H101.206V31.9549H92.6785Z" fill="#0F0F0F"/>
<path d="M77.2842 31.9549V20.2749H80.3242V24.4829C80.8842 23.7629 81.6842 23.1069 82.9162 23.1069C84.7562 23.1069 85.8602 24.3229 85.8602 26.2909V31.9549H82.8362V27.2669C82.8362 26.3069 82.3402 25.7949 81.6042 25.7949C80.8682 25.7949 80.3242 26.3069 80.3242 27.2669V31.9549H77.2842Z" fill="#0F0F0F"/>
<path d="M72.047 32.1628C69.423 32.1628 67.519 30.1148 67.519 27.6668V27.6348C67.519 25.1868 69.407 23.1228 72.143 23.1228C73.919 23.1228 75.103 23.8908 75.839 25.0428L73.791 26.5788C73.359 26.0188 72.895 25.6668 72.175 25.6668C71.183 25.6668 70.463 26.5468 70.463 27.6028V27.6348C70.463 28.7548 71.167 29.6028 72.191 29.6028C72.927 29.6028 73.391 29.2668 73.855 28.7068L75.887 30.1788C75.087 31.3628 73.935 32.1628 72.047 32.1628Z" fill="#0F0F0F"/>
<path d="M62.1359 32.1629C59.4159 32.1629 57.4958 30.3389 57.4958 27.6669V27.6349C57.4958 25.1069 59.3038 23.1069 61.8638 23.1069C64.8398 23.1069 66.2159 25.2989 66.2159 27.8429C66.2159 28.0349 66.2159 28.2589 66.1999 28.4669H60.4079C60.6479 29.4109 61.3358 29.8909 62.2799 29.8909C63.0159 29.8909 63.5759 29.6189 64.1999 29.0109L65.8799 30.4029C65.0479 31.4589 63.8479 32.1629 62.1359 32.1629ZM60.3598 26.9149H63.3839C63.2719 25.9549 62.6958 25.3469 61.8638 25.3469C61.0638 25.3469 60.5199 25.9549 60.3598 26.9149Z" fill="#0F0F0F"/>
<path d="M51.3457 31.9549V23.4749H48.0017V20.7549H57.8097V23.4749H54.4497V31.9549H51.3457Z" fill="#0F0F0F"/>
<path d="M9 32.9548L0.000160217 32.9548L-1.67284e-06 8.45483L8.99972 4.95483L9 32.9548Z" fill="#0F0F0F"/>
<path d="M9 1L0 8.46277V12H9V1Z" fill="#0F0F0F"/>
<path d="M0.0239268 33.002L0.0239254 24.0021L19.0015 24.0019L19.0015 33.0017L0.0239268 33.002Z" fill="#0F0F0F"/>
<path d="M19.0015 8.95459L28.0013 8.95459L28.0015 24.9546L20.0015 32.9546H19.0017L19.0015 8.95459Z" fill="#0F0F0F"/>
<path d="M42.5015 0.955078L42.5015 9.95492L18.9998 9.95491L18.9998 8.45483L28.0015 0.955135L42.5015 0.955078Z" fill="#0F0F0F"/>
<path d="M31.0015 23.9546L31.0015 14.9546L42.5 6L42.5 14.8501L31.0015 23.9546Z" fill="#0F0F0F"/>
<path d="M16.6479 32.9546L16.6478 26.9547L28.0013 17.9547L28.0013 26.9547L20.5013 32.9547L16.6479 32.9546Z" fill="#0F0F0F"/>
<path d="M12.0015 22.9546L12.0015 13.9546L28.0015 0.95459L28.0015 9.95459L12.0015 22.9546Z" fill="#0F0F0F"/>
</svg>
