<svg width="16" height="17" viewBox="0 0 16 17" fill="none" xmlns="http://www.w3.org/2000/svg">
<path d="M13.3332 14.5C13.3332 13.5696 13.3332 13.1044 13.2183 12.7259C12.9598 11.8736 12.2929 11.2067 11.4406 10.9482C11.0621 10.8333 10.5969 10.8333 9.6665 10.8333H6.33317C5.4028 10.8333 4.93761 10.8333 4.55908 10.9482C3.70681 11.2067 3.03986 11.8736 2.78133 12.7259C2.6665 13.1044 2.6665 13.5696 2.6665 14.5M10.9998 5.5C10.9998 7.15685 9.65669 8.5 7.99984 8.5C6.34298 8.5 4.99984 7.15685 4.99984 5.5C4.99984 3.84315 6.34298 2.5 7.99984 2.5C9.65669 2.5 10.9998 3.84315 10.9998 5.5Z" stroke="black" stroke-width="2" stroke-linecap="round" stroke-linejoin="round"/>
</svg>
