<svg width="32" height="32" viewBox="0 0 32 32" fill="none" xmlns="http://www.w3.org/2000/svg">
<path d="M16.0001 16L3.10912 12.5941C2.27974 15.7332 2.62426 19.067 4.07804 21.9701C5.53182 24.8733 7.99496 27.1462 11.0053 28.3625L16.0001 16ZM16.0001 16L16.1397 2.66742C13.1808 2.63643 10.2957 3.59059 7.93878 5.37962C5.58182 7.16865 3.88694 9.69089 3.12109 12.5491L16.0001 16ZM29.3334 16C29.3334 23.3638 23.3639 29.3334 16.0001 29.3334C8.6363 29.3334 2.66676 23.3638 2.66676 16C2.66676 8.63622 8.6363 2.66669 16.0001 2.66669C23.3639 2.66669 29.3334 8.63622 29.3334 16Z" stroke="black" stroke-width="2" stroke-linecap="round" stroke-linejoin="round"/>
</svg>
