<svg width="32" height="32" viewBox="0 0 32 32" fill="none" xmlns="http://www.w3.org/2000/svg">
<path d="M16.0001 21.3333V28M24.0001 28L18.7315 23.6095C17.7598 22.7998 17.274 22.3949 16.7316 22.2402C16.2535 22.1038 15.7467 22.1038 15.2685 22.2402C14.7262 22.3949 14.2403 22.7998 13.2686 23.6095L8.00008 28M10.6667 14.6667V16M16.0001 12V16M21.3334 9.33333V16M29.3334 4H2.66675M4.00008 4H28.0001V14.9333C28.0001 17.1735 28.0001 18.2936 27.5641 19.1493C27.1806 19.9019 26.5687 20.5139 25.816 20.8974C24.9604 21.3333 23.8403 21.3333 21.6001 21.3333H10.4001C8.15987 21.3333 7.03977 21.3333 6.18412 20.8974C5.43147 20.5139 4.81955 19.9019 4.43606 19.1493C4.00008 18.2936 4.00008 17.1735 4.00008 14.9333V4Z" stroke="black" stroke-width="2" stroke-linecap="round" stroke-linejoin="round"/>
</svg>
